# xmcd
#
# Track frame offsets: 
#        150
#        14008
#        34889
#        53957
#        67031
#        82508
#        93938
#        106469
#        118931
#        137450
#        150021
#        169004
#        184952
#        199964
#        217325
#        231653
#        244094
#        263417
#        280178
#        300794
#
# Disc length: 4188 seconds
#
# Revision: 0
# Processed by: cddbd v1.5.2PL0 Copyright (c) Steve Scherf et al.
# Submitted via: ExactAudioCopy v1.1
#
DISCID=13105a14
DTITLE=Various Artist - De Pré Historie - De Jaren '70 Vol. 2 - De Ultieme 10
DTITLE=CD Collectie - 1972
DYEAR=2019
DGENRE=Top 40
TTITLE0=Paul Simon - Mother And Child Reunion
TTITLE1=Elvis Presley - I Just Can't Help Believin'
TTITLE2=Julio Iglesias - Un Canto A Galicia
TTITLE3=Middle Of The Road - Sacramento
TTITLE4=Slade - Coz' I Luv' You
TTITLE5=Johnny Cash - A Thing Called Love
TTITLE6=Bobby Vinton - Sealed With A Kiss
TTITLE7=Donna Hightower - This World Today Is A Mess
TTITLE8=Don McLean - American Pie
TTITLE9=The New Seekers - Beg, Steal Or Borrow
TTITLE10=The Moody Blues - I'm Just A Singer (In A Rock And Roll Band)
TTITLE11=Alexander Curly - I'll Never Drink Again
TTITLE12=Nilsson - Without You
TTITLE13=Albert Hammond - It Never Rains In Southern California
TTITLE14=Louisette - Maria, Maria, Ik Hou Van Jou
TTITLE15=Johnny Nash - I Can See Clearly Now
TTITLE16=Bill Withers - Lean On Me
TTITLE17=Lou Reed - Perfect Day
TTITLE18=Peter Skellern - You're A Lady
TTITLE19=Springwater - I Will Return
EXTD=
EXTT0=
EXTT1=
EXTT2=
EXTT3=
EXTT4=
EXTT5=
EXTT6=
EXTT7=
EXTT8=
EXTT9=
EXTT10=
EXTT11=
EXTT12=
EXTT13=
EXTT14=
EXTT15=
EXTT16=
EXTT17=
EXTT18=
EXTT19=
PLAYORDER=
